<svg width="3" height="592" viewBox="0 0 3 592" fill="none" xmlns="http://www.w3.org/2000/svg">
<path d="M2.99999 16.7241C2.99999 18.0949 2.32844 19.2061 1.50001 19.2061C0.671583 19.2061 -1.68407e-07 18.0949 -1.0849e-07 16.7241C-4.85726e-08 15.3534 0.671583 14.2422 1.50001 14.2422C2.32844 14.2422 2.99999 15.3534 2.99999 16.7241Z" fill="black"/>
<path d="M2.99999 54.1187C2.99999 55.4894 2.32844 56.6006 1.50001 56.6006C0.671583 56.6006 -1.68407e-07 55.4894 -1.0849e-07 54.1187C-4.85724e-08 52.7479 0.671583 51.6367 1.50001 51.6367C2.32844 51.6367 2.99999 52.7479 2.99999 54.1187Z" fill="black"/>
<path d="M2.99999 2.48196C2.99999 3.85271 2.32844 4.96392 1.50001 4.96392C0.671583 4.96392 -1.68407e-07 3.85271 -1.0849e-07 2.48196C-4.85726e-08 1.11121 0.671583 2.93558e-08 1.50001 6.55677e-08C2.32844 1.0178e-07 2.99999 1.11121 2.99999 2.48196Z" fill="black"/>
<path d="M2.99999 282.616C2.99999 283.987 2.32844 285.098 1.50001 285.098C0.671583 285.098 -1.68408e-07 283.987 -1.0849e-07 282.616C-4.85731e-08 281.245 0.671583 280.134 1.50001 280.134C2.32844 280.134 2.99999 281.245 2.99999 282.616Z" fill="black"/>
<path d="M2.99999 269.835C2.99999 271.206 2.32844 272.317 1.50001 272.317C0.671583 272.317 -1.68408e-07 271.206 -1.0849e-07 269.835C-4.85731e-08 268.464 0.671583 267.353 1.50001 267.353C2.32844 267.353 2.99999 268.464 2.99999 269.835Z" fill="black"/>
<path d="M2.99999 308.76C2.99999 310.131 2.32844 311.242 1.50001 311.242C0.671583 311.242 -1.68408e-07 310.131 -1.0849e-07 308.76C-4.85731e-08 307.39 0.671583 306.278 1.50001 306.278C2.32844 306.278 2.99999 307.39 2.99999 308.76Z" fill="black"/>
<path d="M2.99999 295.979C2.99999 297.35 2.32844 298.461 1.50001 298.461C0.671583 298.461 -1.68406e-07 297.35 -1.08489e-07 295.979C-4.85718e-08 294.608 0.671583 293.497 1.50001 293.497C2.32844 293.497 2.99999 294.608 2.99999 295.979Z" fill="black"/>
<path d="M2.99999 471.097C2.99999 472.468 2.32844 473.579 1.50001 473.579C0.671583 473.579 -1.68408e-07 472.468 -1.0849e-07 471.097C-4.85731e-08 469.726 0.671583 468.615 1.50001 468.615C2.32844 468.615 2.99999 469.726 2.99999 471.097Z" fill="black"/>
<path d="M2.99999 507.31C2.99999 508.681 2.32844 509.792 1.50001 509.792C0.671583 509.792 -1.68408e-07 508.681 -1.0849e-07 507.31C-4.85731e-08 505.939 0.671583 504.828 1.50001 504.828C2.32844 504.828 2.99999 505.939 2.99999 507.31Z" fill="black"/>
<path d="M2.99999 458.315C2.99999 459.686 2.32844 460.797 1.50001 460.797C0.671583 460.797 -1.68406e-07 459.686 -1.08489e-07 458.315C-4.85718e-08 456.945 0.671583 455.833 1.50001 455.833C2.32844 455.833 2.99999 456.945 2.99999 458.315Z" fill="black"/>
<path d="M2.99999 256.891C2.99999 258.262 2.32844 259.373 1.50001 259.373C0.671583 259.373 -1.68408e-07 258.262 -1.0849e-07 256.891C-4.85731e-08 255.52 0.671583 254.409 1.50001 254.409C2.32844 254.409 2.99999 255.52 2.99999 256.891Z" fill="black"/>
<path d="M-7.67244e-07 136.779L-4.58642e-08 120.275C-2.05342e-08 119.696 0.283902 119.226 0.634121 119.226L2.36587 119.226C2.71609 119.226 2.99999 119.696 2.99999 120.275L2.99999 136.779C2.99999 137.358 2.71609 137.828 2.36587 137.828L0.63412 137.828C0.283902 137.828 -7.92574e-07 137.358 -7.67244e-07 136.779Z" fill="black"/>
<path d="M-7.67244e-07 243.987L-4.58636e-08 227.484C-2.05336e-08 226.904 0.283902 226.435 0.634121 226.435L2.36587 226.435C2.71609 226.435 2.99999 226.904 2.99999 227.484L2.99999 243.987C2.99999 244.567 2.71609 245.036 2.36587 245.036L0.63412 245.036C0.283902 245.036 -7.92574e-07 244.567 -7.67244e-07 243.987Z" fill="black"/>
<path d="M-7.67244e-07 338.078L-4.58636e-08 321.575C-2.05336e-08 320.995 0.283902 320.525 0.634121 320.525L2.36587 320.525C2.71609 320.525 2.99999 320.995 2.99999 321.575L2.99999 338.078C2.99999 338.657 2.71609 339.127 2.36587 339.127L0.63412 339.127C0.283902 339.127 -7.92574e-07 338.657 -7.67244e-07 338.078Z" fill="black"/>
<path d="M-7.67244e-07 365.359L-4.58636e-08 348.855C-2.05336e-08 348.276 0.283902 347.806 0.634121 347.806L2.36587 347.806C2.71609 347.806 2.99999 348.276 2.99999 348.855L2.99999 365.359C2.99999 365.938 2.71609 366.408 2.36587 366.408L0.63412 366.408C0.283902 366.408 -7.92574e-07 365.938 -7.67244e-07 365.359Z" fill="black"/>
<path d="M-7.67244e-07 109.764L-4.58639e-08 93.2607C-2.05339e-08 92.6812 0.283902 92.2114 0.634121 92.2114L2.36587 92.2114C2.71609 92.2114 2.99999 92.6812 2.99999 93.2607L2.99999 109.764C2.99999 110.343 2.71609 110.813 2.36587 110.813L0.63412 110.813C0.283902 110.813 -7.92574e-07 110.343 -7.67244e-07 109.764Z" fill="black"/>
<path d="M-7.67244e-07 82.7517L-4.58639e-08 66.2485C-2.05339e-08 65.669 0.283902 65.1992 0.634121 65.1992L2.36587 65.1992C2.71609 65.1992 2.99999 65.669 2.99999 66.2485L2.99999 82.7517C2.99999 83.3312 2.71609 83.801 2.36587 83.801L0.63412 83.801C0.283902 83.801 -7.92574e-07 83.3312 -7.67244e-07 82.7517Z" fill="black"/>
<path d="M-7.67246e-07 590.012L-4.58636e-08 573.509C-2.05336e-08 572.93 0.283902 572.46 0.634121 572.46L2.36587 572.46C2.71609 572.46 2.99999 572.93 2.99999 573.509L2.99999 590.012C2.99999 590.592 2.71609 591.062 2.36587 591.062L0.63412 591.062C0.283902 591.062 -7.92576e-07 590.592 -7.67246e-07 590.012Z" fill="black"/>
<path d="M-7.67243e-07 563L-4.58636e-08 546.497C-2.05336e-08 545.918 0.283902 545.448 0.634121 545.448L2.36587 545.448C2.71609 545.448 2.99999 545.918 2.99999 546.497L2.99999 563C2.99999 563.58 2.71609 564.049 2.36587 564.049L0.63412 564.049C0.283902 564.049 -7.92573e-07 563.58 -7.67243e-07 563Z" fill="black"/>
<path d="M-7.67243e-07 535.988L-4.58636e-08 519.485C-2.05336e-08 518.905 0.283902 518.436 0.634121 518.436L2.36587 518.436C2.71609 518.436 2.99999 518.905 2.99999 519.485L2.99999 535.988C2.99999 536.568 2.71609 537.037 2.36587 537.037L0.63412 537.037C0.283902 537.037 -7.92573e-07 536.568 -7.67243e-07 535.988Z" fill="black"/>
</svg>
