<svg xmlns="http://www.w3.org/2000/svg" width="31" height="49" viewBox="0 0 31 49" fill="none">
<path d="M0.66814 17.343L1.13707 17.3221C2.86524 11.2176 5.92406 8.69113 10.3665 7.02832C14.8093 5.36561 18.7314 6.70486 20.1284 7.23909C21.5254 7.77332 22.9546 8.4485 25.1008 10.5595C27.247 12.6702 27.9233 14.8282 27.9233 14.8282L27.3464 15.0226C27.3464 15.0226 25.4223 9.77225 20.4318 7.91092C15.4413 6.04959 13.4142 6.76117 10.5597 7.60715C7.70492 8.45303 5.59488 10.3417 3.97117 12.414C2.34755 14.4859 1.84198 17.4249 1.84198 17.4249L2.65706 17.6202C2.65706 17.6202 2.0842 20.0105 2.40421 22.5487C2.72432 25.0864 4.1027 27.08 4.1027 27.08L3.37259 27.6366C4.5003 29.5697 8.32131 33.5456 13.7214 33.975C19.1214 34.4044 21.9032 32.0114 21.9032 32.0114C21.9032 32.0114 20.2345 29.4827 19.916 28.8743C19.5978 28.266 20.0979 28.1189 20.2885 28.4315C20.4792 28.7441 22.7625 32.3501 22.7625 32.3501C21.6271 33.076 17.6582 35.2511 13.5702 34.6041C9.48214 33.957 8.14305 32.9041 6.4279 31.7616C4.71276 30.619 2.63462 27.7928 2.63462 27.7928L2.54413 28.1704L3.26099 29.2069L1.88078 30.9383L5.49859 34.5328L7.0783 32.7826L7.55093 33.1619L3.61728 37.075L7.30713 40.8196L12.7298 35.0684L13.4193 35.2337L4.34958 44.1685L8.26954 48.1014L22.1485 33.6673L22.4818 34.2126C26.2055 32.5095 28.9464 27.7119 28.9464 27.7119L28.0811 27.1719C28.962 25.9861 29.7189 21.4445 29.7189 21.4445L30.0475 21.4567C30.1505 20.7499 30.3893 19.4764 30.1244 17.8167C29.859 16.1568 29.1551 14.3914 29.1551 14.3914L28.4852 14.6964L27.5104 12.4006L28.9033 10.7389L25.2581 7.13782L23.7074 8.62849L23.4692 8.23875L25.5618 6.14601L21.618 2.40718L18.3054 6.26968L17.6461 5.97844L19.3501 4.12524L15.5793 0.494063L12.1867 4.13796C11.2334 4.24216 9.25196 4.76484 7.29011 5.75812C5.32826 6.75139 3.29601 8.59254 3.29601 8.59254L4.55941 9.9595C4.12527 10.3875 3.21168 11.4326 2.18039 13.2476C1.1487 15.0625 0.668728 17.3423 0.668728 17.3423L0.66814 17.343ZM12.8571 31.7719C12.8571 31.7719 9.3334 31.2601 7.09175 28.9934C4.8505 26.7267 4.26921 24.7247 4.26921 24.7247L3.64211 24.5744C3.64211 24.5744 2.76266 22.4347 2.93158 20.3464L3.4331 20.4666C3.4331 20.4666 3.48445 17.4854 4.72962 15.0568C5.97489 12.6278 9.02061 10.4312 9.02061 10.4312L10.196 12.4424C10.196 12.4424 7.90551 13.4235 6.63513 16.5114C5.36475 19.5994 4.94967 22.1607 7.31348 25.8536C9.67729 29.5464 13.3542 29.6961 13.3542 29.6961L12.8567 31.7718L12.8571 31.7719ZM13.3144 27.5999C9.37333 26.6554 6.94645 22.684 7.89409 18.7299C8.84172 14.7757 12.8052 12.3358 16.7463 13.2803C20.6874 14.2248 23.1142 18.1963 22.1666 22.1504C21.219 26.1045 17.2555 28.5445 13.3144 27.5999ZM28.8489 15.1166C29.9458 18.12 29.7117 20.6451 29.7117 20.6451L26.3483 20.5706C26.2493 23.4737 25.0216 26.1064 25.0216 26.1064L26.8272 26.8718C28.1397 24.9914 28.5452 21.3635 28.5452 21.3635L28.984 21.4687C28.984 21.4687 29.005 22.3136 28.5076 24.3893C28.0101 26.4651 26.9401 28.1295 26.9401 28.1295L24.6402 26.7301C24.1883 27.5126 23.6789 28.1128 23.6789 28.1128L21.8985 26.6881C23.9769 24.7687 24.4921 21.1233 24.0489 18.8221C23.6057 16.5209 22.9393 15.4298 21.2971 13.7056C19.6549 11.9818 17.4898 11.3297 17.4898 11.3297L17.6858 10.512C19.769 10.9446 21.8494 12.5078 21.8494 12.5078L22.3263 11.6241C25.1143 13.8223 25.6701 16.4831 25.6701 16.4831L28.8486 15.1161L28.8489 15.1166Z" fill="black"/>
</svg>