<svg width="4203" height="1451" viewBox="0 0 4203 1451" fill="none" xmlns="http://www.w3.org/2000/svg">
<path d="M6.36819 223.559H495.328L575.438 309.199L301.948 585.449L42.2782 328.539L36.7582 298.149C36.7582 298.149 18.7982 266.379 6.36819 253.949C-6.06181 241.519 6.36819 223.559 6.36819 223.559Z" fill="black" stroke="black" stroke-miterlimit="10"/>
<path d="M89.2383 861.689C89.2383 861.689 621.018 327.149 633.448 314.719C645.878 302.289 605.828 281.569 592.008 267.759C578.198 253.949 594.768 223.559 611.348 223.559H1152.8C1172.14 223.559 1191.47 267.759 1202.52 278.809C1213.57 289.859 664.528 826.469 645.878 845.119C627.228 863.769 611.348 847.879 575.438 847.879H384.828L348.918 883.789H89.2483V861.689H89.2383Z" fill="black" stroke="black" stroke-miterlimit="10"/>
<path d="M959.431 709.749H1384.85L1779.89 317.479L1694.25 223.559H1335.13C1335.13 223.559 923.521 635.169 909.711 648.979C895.901 662.789 918.001 676.599 923.521 682.129C929.041 687.649 959.431 709.749 959.431 709.749Z" fill="black" stroke="black" stroke-miterlimit="10"/>
<path d="M1931.82 223.559C1931.82 223.559 1336.5 810.589 1321.31 825.779C1306.12 840.969 1282.64 883.789 1354.46 883.789H1807.51L2340.67 342.339V306.429C2340.67 306.429 2390.39 262.229 2395.92 248.419C2401.44 234.609 2398.68 223.559 2382.11 223.559H1931.82Z" fill="black" stroke="black" stroke-miterlimit="10"/>
<path d="M2249.51 480.47C2249.51 480.47 2409.73 325.77 2423.55 311.96C2437.36 298.15 2448.41 320.251 2448.41 364.451V430.75C2448.41 441.8 2382.11 488.76 2371.06 499.81C2360.01 510.86 2255.04 499.81 2249.51 499.81C2243.98 499.81 2249.51 480.47 2249.51 480.47Z" fill="black" stroke="black" stroke-miterlimit="10"/>
<path d="M2208.07 524.67C2208.07 524.67 1987.07 745.67 1970.5 762.24C1953.93 778.81 1964.98 798.15 1992.6 798.15H2459.46C2481.56 798.15 2604.49 655.88 2616.92 643.45C2629.35 631.02 2616.92 607.54 2616.92 607.54C2616.92 607.54 2665.95 568.17 2680.46 553.67C2694.96 539.17 2688.75 524.66 2666.65 524.66H2208.08L2208.07 524.67Z" fill="black" stroke="black" stroke-miterlimit="10"/>
<path d="M2473.27 223.561H2978.81L3045.11 307.871V361.681L3152.85 458.371V483.231H2719.14L2688.3 452.841L2644.55 450.081C2644.55 450.081 2506.43 284.331 2487.09 264.991C2467.75 245.651 2452.56 223.551 2473.28 223.551L2473.27 223.561Z" fill="black" stroke="black" stroke-miterlimit="10"/>
<path d="M2735.7 521.901H3201.18C3201.18 521.901 3438.75 759.471 3450.49 771.211C3462.23 782.951 3453.94 789.861 3431.84 789.861H2935.97L2786.8 637.921V608.911C2786.8 608.911 2748.82 558.491 2735.69 545.371C2722.57 532.251 2726.02 521.891 2735.69 521.891L2735.7 521.901Z" fill="black" stroke="black" stroke-miterlimit="10"/>
<path d="M3034.05 223.559H3507.82C3507.82 223.559 4094.85 818.879 4110.04 834.069C4125.23 849.259 4121.09 874.129 4104.52 874.129H3615.56L3091.47 345.109V307.819L3034.05 255.329V223.559Z" fill="black" stroke="black" stroke-miterlimit="10"/>
<path d="M3669.42 328.531C3669.42 328.531 3909.07 566.791 3919.43 577.151C3929.79 587.511 3940.84 580.601 3953.96 567.481C3967.08 554.361 4186.01 335.431 4194.99 326.451C4203.97 317.471 4207.42 308.491 4187.39 288.471C4167.36 268.441 4120.97 222.051 4120.97 222.051H3647.33C3625.23 222.051 3616.25 246.341 3636.28 266.371C3656.31 286.401 3673.57 303.661 3673.57 303.661L3669.43 328.521L3669.42 328.531Z" fill="black" stroke="black" stroke-miterlimit="10"/>
<path opacity="0.57" d="M285.379 1154.51V974.951L1039.54 259.47L1125.18 237.371V151.731C1125.18 151.731 1064.41 88.1908 1050.59 71.6208C1036.78 55.0508 1078.21 10.8505 1089.26 5.32052C1100.31 -0.199479 1821.32 5.32052 1840.66 5.32052C1860 5.32052 1873.81 35.7109 1882.1 43.9909C1890.39 52.2809 1882.1 171.06 1882.1 171.06C1882.1 171.06 634.839 1423.85 622.409 1436.28C609.979 1448.71 585.119 1454.24 567.159 1436.28C549.199 1418.32 285.389 1154.51 285.389 1154.51H285.379Z" stroke="black" stroke-width="5" stroke-miterlimit="10"/>
<path opacity="0.57" d="M1282.64 969.431L2014.7 267.761L2114.15 248.421C2114.15 248.421 2139.01 193.171 2127.96 165.551C2116.91 137.931 2045.09 102.011 2045.09 63.3408C2045.09 24.6708 2067.19 2.87109 2100.34 2.87109H2846.21L2882.12 49.5308V165.551C2882.12 165.551 1651.43 1396.24 1623.81 1423.86C1596.19 1451.48 1570.63 1443.89 1550.6 1423.86C1530.57 1403.83 1282.64 1146.23 1282.64 1146.23V969.431Z" stroke="black" stroke-width="5" stroke-miterlimit="10"/>
<path opacity="0.57" d="M2247.05 977.709V1148.98C2247.05 1148.98 2499.51 1404.51 2520.23 1425.23C2540.95 1445.95 2572.72 1444.57 2627.97 1389.32C2683.22 1334.07 3786.83 233.22 3821.36 198.69C3855.89 164.16 3843.46 157.25 3843.46 124.1C3843.46 90.9496 3845.64 41.2295 3845.64 41.2295L3813.07 2.85938H3046.34C3046.34 2.85938 3021.62 37.0795 3009.19 49.5195C2996.76 61.9595 3003.67 77.1395 3020.24 90.9595C3036.81 104.769 3091.47 151.729 3091.47 151.729V256.7H2973.28L2247.05 977.709Z" stroke="black" stroke-width="5" stroke-miterlimit="10"/>
<path d="M603.761 1393.47C619.402 1393.47 632.081 1380.79 632.081 1365.15C632.081 1349.51 619.402 1336.83 603.761 1336.83C588.121 1336.83 575.441 1349.51 575.441 1365.15C575.441 1380.79 588.121 1393.47 603.761 1393.47Z" fill="black" stroke="black" stroke-miterlimit="10"/>
</svg>
