<svg width="24" height="24" viewBox="0 0 24 24" fill="none" xmlns="http://www.w3.org/2000/svg">
<g id="vuesax/linear/story">
<g id="story">
<g id="Group">
<path id="Vector" d="M16.42 7.95012C18.86 10.3901 18.86 14.3501 16.42 16.7901C13.98 19.2301 10.02 19.2301 7.58 16.7901C5.14 14.3501 5.14 10.3901 7.58 7.95012C10.02 5.51012 13.98 5.51012 16.42 7.95012Z" stroke="black" stroke-width="1.5" stroke-linecap="round" stroke-linejoin="round"/>
<path id="Vector_2" d="M8.24999 21.6399C6.24999 20.8399 4.49999 19.3899 3.33999 17.3799C2.19999 15.4099 1.81999 13.2199 2.08999 11.1299" stroke="black" stroke-width="1.5" stroke-linecap="round" stroke-linejoin="round"/>
<path id="Vector_3" d="M5.8501 4.47986C7.5501 3.14986 9.68009 2.35986 12.0001 2.35986C14.2701 2.35986 16.3601 3.12985 18.0401 4.40985" stroke="black" stroke-width="1.5" stroke-linecap="round" stroke-linejoin="round"/>
<path id="Vector_4" d="M15.75 21.6399C17.75 20.8399 19.5 19.3899 20.66 17.3799C21.8 15.4099 22.18 13.2199 21.91 11.1299" stroke="black" stroke-width="1.5" stroke-linecap="round" stroke-linejoin="round"/>
</g>
</g>
</g>
</svg>
